HIERARCHY
ROOT root
{
	OFFSET 0.000000 0.000000 0.000000
	CHANNELS 6 Xposition Yposition Zposition Zrotation Yrotation Xrotation
	JOINT lhip
	{
		OFFSET 0.058581 -0.082280 -0.017664
		CHANNELS 3 Zrotation Yrotation Xrotation
		JOINT lknee
		{
			OFFSET 0.043451 -0.386469 0.008037
			CHANNELS 3 Zrotation Yrotation Xrotation
			JOINT lankle
			{
				OFFSET -0.014790 -0.426874 -0.037428
				CHANNELS 3 Zrotation Yrotation Xrotation
				JOINT ltoe
				{
					OFFSET 0.041054 -0.060286 0.122042
					CHANNELS 3 Zrotation Yrotation Xrotation
					End Site
					{
						OFFSET 0.000000 0.000000 0.000000
					}
				}
			}
		}
	}
	JOINT rhip
	{
		OFFSET -0.060310 -0.090513 -0.013543
		CHANNELS 3 Zrotation Yrotation Xrotation
		JOINT rknee
		{
			OFFSET -0.043257 -0.383688 -0.004843
			CHANNELS 3 Zrotation Yrotation Xrotation
			JOINT rankle
			{
				OFFSET 0.019056 -0.420046 -0.034562
				CHANNELS 3 Zrotation Yrotation Xrotation
				JOINT rtoe
				{
					OFFSET -0.034840 -0.062106 0.130323
					CHANNELS 3 Zrotation Yrotation Xrotation
					End Site
					{
						OFFSET 0.000000 0.000000 0.000000
					}
				}
			}
		}
	}
	JOINT lowerback
	{
		OFFSET 0.004439 0.124404 -0.038385
		CHANNELS 3 Zrotation Yrotation Xrotation
		JOINT upperback
		{
			OFFSET 0.004488 0.137956 0.026820
			CHANNELS 3 Zrotation Yrotation Xrotation
			JOINT chest
			{
				OFFSET -0.002265 0.056032 0.002855
				CHANNELS 3 Zrotation Yrotation Xrotation
				JOINT lowerneck
				{
					OFFSET -0.013390 0.211636 -0.033468
					CHANNELS 3 Zrotation Yrotation Xrotation
					JOINT upperneck
					{
						OFFSET 0.010113 0.088937 0.050410
						CHANNELS 3 Zrotation Yrotation Xrotation
						End Site
						{
							OFFSET 0.000000 0.000000 0.000000
						}
					}
				}
				JOINT lclavicle
				{
					OFFSET 0.071702 0.114000 -0.018898
					CHANNELS 3 Zrotation Yrotation Xrotation
					JOINT lshoulder
					{
						OFFSET 0.122921 0.045205 -0.019046
						CHANNELS 3 Zrotation Yrotation Xrotation
						JOINT lelbow
						{
							OFFSET 0.255332 -0.015649 -0.022946
							CHANNELS 3 Zrotation Yrotation Xrotation
							JOINT lwrist
							{
								OFFSET 0.265709 0.012698 -0.007375
								CHANNELS 3 Zrotation Yrotation Xrotation
								End Site
								{
									OFFSET 0.000000 0.000000 0.000000
								}
							}
						}
					}
				}
				JOINT rclavicle
				{
					OFFSET -0.082954 0.112472 -0.023707
					CHANNELS 3 Zrotation Yrotation Xrotation
					JOINT rshoulder
					{
						OFFSET -0.113228 0.046853 -0.008472
						CHANNELS 3 Zrotation Yrotation Xrotation
						JOINT relbow
						{
							OFFSET -0.260127 -0.014369 -0.031269
							CHANNELS 3 Zrotation Yrotation Xrotation
							JOINT rwrist
							{
								OFFSET -0.269108 0.006794 -0.006027
								CHANNELS 3 Zrotation Yrotation Xrotation
								End Site
								{
									OFFSET 0.000000 0.000000 0.000000
								}
							}
						}
					}
				}
			}
		}
	}
}
MOTION
Frames: 8
Frame Time: 0.033333
0.833969 0.735904 0.989383 -97.496299 2.310564 93.652624 4.712646 -2.277003 -14.955347 -4.358297 5.050667 1.825085 1.274749 8.674252 -0.517637 0.000000 -0.000000 0.000000 3.124986 -0.306343 3.270788 0.744777 3.591779 26.262435 4.223659 -0.620498 -10.436946 0.000000 -0.000000 0.000000 -2.628508 4.363596 8.514468 0.893047 -1.103015 5.416499 -0.459288 1.353665 1.119690 2.278785 4.157454 -9.840459 0.290485 -4.459381 5.264925 -28.822203 6.906342 1.343484 -55.400351 -0.677847 10.306704 20.883281 -41.189535 -3.642124 4.178937 -12.274692 -14.160601 30.760795 1.967397 3.131657 56.767798 7.864778 15.286466 -17.804616 28.439235 -3.249502 4.338648 12.445261 -5.623252 
0.813299 0.731278 0.991696 -97.552109 2.101361 93.634138 4.019052 -2.229708 -13.325219 -4.710482 4.481849 1.234575 2.508678 8.819995 -1.441832 0.000000 -0.000000 0.000000 1.942344 0.465062 0.502320 1.485359 2.120533 32.272044 5.460555 -0.267767 -5.084368 0.000000 -0.000000 0.000000 -3.392419 3.912902 8.347388 0.939474 -0.697258 5.342104 -0.505833 1.143070 0.907675 2.528680 3.775370 -10.440557 0.195838 -4.318203 5.993619 -28.563426 6.823411 1.432410 -55.157553 -1.180042 10.374898 21.297408 -41.481736 -4.500814 3.831202 -12.558843 -14.008366 30.774810 2.250684 2.793020 57.217942 7.652335 16.175102 -18.285164 28.823255 -3.708880 5.714328 12.766241 -5.449293 
0.794078 0.727274 0.992659 -97.286899 2.391730 93.670464 4.043258 -2.389684 -12.256039 -5.157483 4.129524 1.290293 3.408987 9.194706 -2.895111 0.000000 -0.000000 0.000000 1.177270 0.567886 -2.856872 2.598656 1.300099 38.572021 5.808792 -0.135028 -0.130422 0.000000 -0.000000 0.000000 -3.498895 3.216829 8.316276 1.181612 -0.506356 4.836618 -0.602526 1.157550 0.882598 2.476589 3.465192 -10.719559 -0.049338 -4.064783 6.390494 -28.521132 6.925547 1.278249 -54.601160 -1.638070 10.651444 20.447210 -41.941155 -4.165301 5.369520 -12.552799 -14.687477 31.049296 1.975918 2.670990 56.923785 8.097051 16.643156 -17.927873 29.563221 -3.626229 5.503369 13.155600 -5.181483 
0.772740 0.722071 0.993055 -96.674637 2.561712 93.550926 3.804350 -2.610147 -10.853927 -5.454285 3.717021 1.161057 4.516322 9.168950 -3.711757 0.000000 -0.000000 0.000000 0.363584 0.110031 -7.354043 2.763280 -0.088241 46.205978 6.385682 -0.956705 5.198901 0.000000 -0.000000 0.000000 -3.405929 2.369060 8.746631 1.321511 -0.499666 4.545263 -0.890560 0.932642 0.760170 2.210314 3.327797 -10.902515 -0.138550 -3.791171 6.439242 -28.364925 6.136452 1.701988 -53.815237 -2.244507 10.603818 20.744994 -43.075369 -5.223321 6.577257 -12.665008 -15.054935 31.333806 2.654399 2.694261 56.772175 8.654029 17.122087 -18.477656 30.822692 -4.848831 5.146457 12.887317 -4.517388 
0.761175 0.719812 0.993005 -96.896561 2.429697 93.487170 3.390348 -2.544525 -9.956507 -5.469263 3.986721 1.039139 4.711605 8.994777 -4.623248 0.000000 -0.000000 0.000000 -0.332081 0.337562 -10.280295 1.619563 -1.825989 50.422932 6.238632 -3.187276 5.058911 0.000000 -0.000000 0.000000 -3.445601 1.388713 8.567841 1.003940 -0.509024 5.073404 -1.437977 1.486275 0.897776 2.670036 4.111742 -12.044372 -0.658133 -4.065306 6.986962 -28.091702 6.293627 1.139556 -53.129552 -3.208003 10.122564 20.919274 -43.442332 -5.653855 4.344772 -13.603405 -14.554070 31.929037 3.179384 2.731290 57.030940 9.896937 17.633318 -19.344388 30.839850 -6.049897 6.263527 12.775537 -3.921322 
0.743923 0.716403 0.994666 -96.134897 2.660271 92.947340 3.006554 -1.769827 -8.545650 -5.458575 2.608366 1.365651 4.946099 9.003156 -5.617438 0.000000 -0.000000 0.000000 -0.674510 -0.483535 -12.517264 -0.795124 -4.521704 52.924737 4.748439 -7.502502 1.733730 0.000000 -0.000000 0.000000 -3.212287 0.972559 9.680588 1.097075 0.042185 3.987919 -1.114833 0.591476 1.051445 2.422538 3.623399 -12.006697 -0.945373 -3.609282 7.255797 -28.533129 5.892711 1.676935 -52.713884 -3.649822 9.982683 21.502798 -44.734809 -6.311877 8.735211 -12.488689 -15.719980 31.990992 3.334969 2.096127 56.706606 9.625253 17.843083 -19.372023 32.063178 -6.188230 3.943871 12.779339 -4.060702 
0.728052 0.714047 0.995989 -95.225562 3.039880 92.733372 3.025713 -1.371640 -7.495008 -5.393841 1.940549 1.646499 4.640365 8.491035 -6.654445 0.000000 -0.000000 0.000000 -0.591774 -0.661982 -14.701653 -3.020971 -7.167418 53.891598 2.072555 -10.376168 -0.899037 0.000000 -0.000000 0.000000 -2.808490 0.111392 10.170405 1.169197 0.078781 3.546655 -1.030865 0.343117 1.155546 2.504031 3.480756 -12.122068 -1.258542 -3.745417 7.760461 -28.463136 5.798412 1.930553 -52.909930 -4.751199 9.101678 22.553681 -44.716435 -7.137607 6.925438 -13.282609 -16.156006 31.828594 3.723350 2.281199 56.869341 9.992451 17.827921 -20.223602 33.225550 -6.522730 4.380732 12.985775 -4.333909 
0.713025 0.711619 0.996813 -95.044394 3.165443 92.727432 2.727590 -0.584663 -6.618015 -5.180706 1.675225 1.834741 4.098321 7.797812 -7.700958 0.000000 -0.000000 0.000000 -0.809468 -0.640347 -16.893536 -4.742307 -9.040677 52.714251 2.127524 -10.789187 -3.846016 0.000000 -0.000000 0.000000 -2.725112 -0.271665 10.268691 1.091349 0.370193 3.449720 -0.795353 0.141553 1.074936 2.559209 3.692818 -12.136696 -1.352954 -3.741792 7.818432 -28.334404 5.752663 1.924453 -53.309745 -5.360201 9.059423 23.565892 -45.463460 -8.353872 6.618351 -13.236459 -16.250431 31.811890 3.779815 2.230682 56.808280 10.508719 17.708940 -20.599966 34.326993 -6.958786 6.124879 13.856355 -4.997916 
